<svg xmlns="http://www.w3.org/2000/svg" xmlns:xlink="http://www.w3.org/1999/xlink" version="1.1" id="Layer_1" x="0px" y="0px" style="enable-background:new 0 0 841.89 595.28;" xml:space="preserve" viewBox="36.52 187.39 784.27 121.66">
<style type="text/css">
	.st0{fill:#5C5C5C;}
	.st1{fill-rule:evenodd;clip-rule:evenodd;fill:#EC252C;}
	.st2{fill-rule:evenodd;clip-rule:evenodd;fill:#010101;}
</style>
<g>
	<path class="st0" d="M455.41,212.03c3.04,0,5.92,0,8.95,0c0.33,2.81,0.66,5.61,0.98,8.42c0.66,5.74,1.31,11.48,1.96,17.22   c0.39,3.49,0.74,6.99,1.15,10.48c0.05,0.41,0.34,0.79,0.52,1.18c0.21-0.37,0.55-0.72,0.6-1.11c0.68-5.25,1.33-10.51,1.97-15.76   c0.79-6.55,1.55-13.1,2.37-19.64c0.04-0.31,0.55-0.79,0.86-0.8c2.02-0.07,4.04-0.04,6.18-0.04c0.41,3.34,0.81,6.57,1.2,9.81   c0.74,6.07,1.47,12.14,2.2,18.21c0.33,2.72,0.64,5.45,1,8.17c0.05,0.41,0.37,0.78,0.56,1.17c0.22-0.41,0.6-0.81,0.65-1.24   c0.88-7.65,1.73-15.31,2.58-22.97c0.43-3.88,0.83-7.76,1.25-11.63c0.05-0.47,0.17-0.93,0.27-1.44c2.96,0,5.84,0,8.89,0   c-3.03,22.49-6.05,44.89-9.08,67.41c-2.5,0-4.98,0-7.56,0c-1.73-11.98-3.45-23.93-5.17-35.89c-0.18,0-0.36,0-0.54-0.01   c-1.72,11.95-3.45,23.91-5.19,36.01c-2.35,0-4.61,0.03-6.86-0.04c-0.28-0.01-0.74-0.59-0.79-0.95c-0.92-6.63-1.78-13.26-2.67-19.89   c-1.01-7.54-2.05-15.07-3.07-22.6c-0.91-6.77-1.81-13.55-2.71-20.32C455.74,214.58,455.59,213.39,455.41,212.03z"/>
	<path class="st0" d="M641.03,279.57c-2.57,0-5.03,0.03-7.48-0.04c-0.32-0.01-0.72-0.54-0.9-0.92c-0.15-0.32-0.03-0.76-0.03-1.14   c0-12.26,0-24.52,0-36.78c0-2.03-0.46-2.81-1.81-3.19c-1.75-0.5-4.32,1.35-4.41,3.17c-0.02,0.39,0,0.77,0,1.16   c0,11.92,0,23.84,0,35.77c0,0.58,0,1.15,0,1.97c-2.71,0-5.34,0.03-7.97-0.06c-0.2-0.01-0.54-0.8-0.55-1.24   c-0.04-3.72-0.03-7.43-0.03-11.15c0-8.78,0-17.57,0-26.35c0-2.33-0.84-3.42-2.57-3.38c-1.69,0.04-3.63,1.96-3.63,3.65   c-0.01,12.16,0,24.33,0,36.49c0,0.62,0,1.24,0,2.05c-2.87,0-5.61,0.01-8.34-0.03c-0.21,0-0.51-0.37-0.59-0.63   c-0.11-0.36-0.05-0.76-0.05-1.15c0-15.54,0-31.09,0-46.63c0-0.52,0-1.05,0-1.68c3.01,0,5.88,0,8.96,0c0,1.25,0,2.52,0,4.2   c1.46-1.21,2.53-2.22,3.72-3.07c0.96-0.69,1.99-1.46,3.1-1.76c2.32-0.61,4.29,0.18,5.64,2.22c0.61,0.92,1.13,1.9,1.79,3.02   c1.08-0.98,2.17-1.95,3.24-2.94c1.68-1.55,3.48-2.71,5.93-2.46c1.97,0.21,3.45,1.26,4.24,2.89c0.86,1.78,1.76,3.78,1.78,5.7   c0.15,13.85,0.09,27.71,0.09,41.56C641.15,279,641.1,279.19,641.03,279.57z"/>
	<path class="st0" d="M728.4,279.48c-3.07,0-5.94,0-8.89,0c0-22.5,0-44.92,0-67.42c2.94,0,5.8,0,8.86,0c0,6.82,0,13.59,0,20.7   c1.23-0.89,2.13-1.64,3.13-2.23c1.11-0.66,2.26-1.37,3.48-1.69c3.11-0.82,5.71,0.36,7.09,3.27c0.68,1.45,1.26,3.11,1.27,4.68   c0.1,13.99,0.07,27.99,0.07,41.98c0,0.19-0.05,0.38-0.1,0.68c-2.87,0-5.74,0-8.77,0c-0.04-0.61-0.1-1.21-0.1-1.81   c-0.01-11.92,0-23.84,0-35.76c0-0.39,0.01-0.77,0-1.16c-0.04-2.09-0.9-3.55-2.14-3.65c-1.36-0.11-3.49,1.72-3.78,3.29   c-0.11,0.61-0.11,1.25-0.11,1.87c-0.01,11.78,0,23.55,0,35.33C728.4,278.18,728.4,278.79,728.4,279.48z"/>
	<path class="st0" d="M687.18,229c-3.13,0.3-6.17,0.59-9.36,0.9c-0.22-1.84-0.39-3.54-0.64-5.24c-0.1-0.71-0.31-1.41-0.58-2.07   c-0.69-1.75-1.75-2.47-3.38-2.37c-1.48,0.09-2.42,0.96-2.8,2.83c-0.74,3.61-0.53,7.18,1.42,10.35c2.39,3.9,5.11,7.6,7.58,11.45   c2.13,3.32,4.49,6.57,6.06,10.16c2.72,6.21,2.46,12.61-0.52,18.73c-2.06,4.23-5.69,6.31-10.36,6.45c-1.82,0.05-3.68-0.04-5.46-0.41   c-3.6-0.75-6.04-3.04-7.53-6.38c-1.76-3.97-1.88-8.21-2.07-12.6c1.12-0.12,2.15-0.23,3.19-0.33c1.73-0.16,3.46-0.27,5.18-0.47   c0.97-0.11,1.24,0.29,1.3,1.2c0.15,2.16,0.27,4.33,0.67,6.45c0.46,2.46,1.82,3.68,3.62,3.69c1.66,0.02,2.72-0.71,3.37-2.43   c1.34-3.59,1.06-7.14-0.65-10.5c-1.13-2.22-2.49-4.35-3.92-6.4c-3.52-5-7.42-9.78-9.79-15.49c-2.5-6.03-2.91-12.17-0.11-18.23   c1.98-4.28,5.78-7.61,13.2-6.94c4.78,0.44,8.58,3.47,10.25,8.5C686.79,222.77,687.2,225.75,687.18,229z"/>
	<path class="st0" d="M541.58,241.93c-2.96,0-5.6,0-8.36,0c-0.19-1.21-0.36-2.38-0.56-3.55c-0.22-1.29-0.94-2.08-2.29-2.21   c-1.58-0.14-2.53,0.36-3.05,1.83c-1.1,3.07-0.8,6.06,1.28,8.6c2.05,2.49,4.45,4.69,6.52,7.16c1.85,2.21,3.85,4.43,5.08,6.98   c2.47,5.15,1.93,10.4-1.31,15.08c-4.37,6.31-15.03,5.93-19.28-0.51c-1.81-2.74-2.48-5.8-2.62-9.03c-0.04-0.9,0.3-1.19,1.16-1.18   c2.03,0.03,4.05,0.03,6.08,0c0.77-0.01,1.06,0.27,1.19,1.06c0.24,1.46,0.58,2.92,1.03,4.33c0.39,1.23,1.38,1.95,2.64,2.22   c1.71,0.37,3.03-0.42,3.57-2.1c0.98-3.04,0.73-5.95-1.27-8.49c-1.79-2.27-3.78-4.37-5.66-6.56c-1.51-1.75-3.08-3.46-4.46-5.31   c-3.41-4.55-3.73-9.63-1.91-14.82c1.43-4.08,4.48-6.44,8.89-6.7c1.63-0.1,3.3-0.12,4.9,0.16c4.78,0.86,7.44,3.93,8.07,9.06   C541.37,239.23,541.45,240.52,541.58,241.93z"/>
	<path class="st0" d="M776.05,229.42c2.97,0,5.88,0,8.96,0c0,1.59,0,3.11,0,4.63c2.06-3.6,5.16-5.17,9.23-5.4c0,3.34,0,6.54,0,9.81   c-1.28,0-2.53-0.13-3.75,0.02c-3.53,0.44-5.43,2.63-5.44,6.27c-0.03,10.95-0.01,21.9-0.01,32.86c0,1.96,0,1.96-1.95,1.96   c-2.31,0-4.62,0-7.04,0C776.05,262.8,776.05,246.15,776.05,229.42z"/>
	<path class="st0" d="M504.05,229.4c2.98,0,5.82,0,8.81,0c0.05,0.55,0.13,1.06,0.13,1.56c0.01,15.64-0.01,31.27,0.03,46.91   c0,1.27-0.27,1.81-1.68,1.74c-2.39-0.12-4.8-0.03-7.29-0.03C504.05,262.78,504.05,246.16,504.05,229.4z"/>
	<path class="st0" d="M504.03,221.01c0-2.99,0-5.91,0-8.93c2.91,0,5.77,0,8.8,0c0,2.93,0,5.88,0,8.93   C509.95,221.01,507.08,221.01,504.03,221.01z"/>
	<path class="st0" d="M714.95,238.03c-0.02-1.78-0.49-3.65-1.18-5.3c-1.75-4.15-5.69-5.27-9.53-2.88c-0.94,0.58-1.79,1.3-2.69,1.95   c-0.28,0.21-0.58,0.4-1.09,0.75c0-1.22,0-2.16,0-3.14c-3.06,0-5.99,0-8.97,0c0,22.55,0,44.92,0,67.33c3.03,0,5.95,0,9.03,0   c0-6.79,0-13.46,0-20.41c1.46,1.07,2.64,2.03,3.91,2.86c2.93,1.92,6.36,1.29,8.46-1.51c1.5-2,2.11-4.32,2.11-6.78   C715.01,259.95,715.05,248.99,714.95,238.03z M705.89,268.65c0,2.21-0.54,3-2,3.04c-1.7,0.05-3.37-1.52-3.38-3.25   c-0.02-4.92-0.01-9.84-0.01-14.76c0-4.39-0.06-8.78,0.05-13.16c0.02-0.85,0.5-1.95,1.14-2.44c0.74-0.55,2.05-0.95,2.82-0.65   c0.66,0.25,1.26,1.57,1.28,2.44c0.12,4.92,0.06,9.84,0.06,14.75c0.01,0,0.02,0,0.03,0C705.89,259.3,705.9,263.98,705.89,268.65z"/>
	<path class="st0" d="M559.58,212.08c0,6.8,0,13.5,0,20.4c-1.64-1.13-2.99-2.22-4.48-3.05c-2.79-1.56-5.75-0.92-7.76,1.57   c-1.55,1.91-2.22,4.17-2.22,6.58c-0.04,11.24-0.1,22.48,0.06,33.72c0.03,1.97,0.83,4.05,1.73,5.86c1.17,2.35,3.37,3.47,6.03,3   c1.18-0.21,2.33-0.84,3.38-1.46c1.08-0.64,2.03-1.5,3.31-2.46c0,1.32,0,2.26,0,3.22c3.11,0,6.07,0,9.01,0c0-22.53,0-44.94,0-67.37   C565.59,212.08,562.63,212.08,559.58,212.08z M559.54,268.23c-0.02,0.91-0.47,2.03-1.11,2.62c-0.59,0.55-1.86,0.9-2.57,0.63   c-0.71-0.26-1.22-1.34-1.58-2.16c-0.26-0.58-0.16-1.33-0.16-2c-0.01-8.68-0.01-17.35,0-26.03c0-0.43,0.01-0.87,0.05-1.3   c0.18-1.74,1.19-2.93,2.45-2.89c1.44,0.04,2.95,1.62,2.96,3.21c0.03,3.42,0.01,6.85,0.01,10.27c0,1.35,0,2.7,0,4.05   c0,2.27,0.01,4.53,0.02,6.8C559.61,263.7,559.6,265.97,559.54,268.23z"/>
	<path class="st0" d="M598.25,243.1c0-1.44-0.04-2.9-0.29-4.32c-0.76-4.29-2.81-7.8-7.04-9.35c-4.19-1.53-8.4-1.3-11.99,1.71   c-2.85,2.39-4.19,5.64-4.27,9.3c-0.11,4.68-0.03,9.35-0.03,14.03c-0.01,0-0.01,0-0.02,0c0,4.24-0.02,8.49,0.01,12.73   c0.01,1.15,0.07,2.33,0.32,3.44c0.94,4.13,3.02,7.47,7.23,8.84c4.27,1.39,8.43,1.02,11.93-2.09c3.03-2.71,4.1-6.34,4.13-10.29   C598.3,259.11,598.28,251.11,598.25,243.1z M589.68,267.46c0,0.99-0.26,2-0.55,2.96c-0.37,1.25-1.31,1.82-2.63,1.84   c-1.3,0.02-2.34-0.43-2.72-1.69c-0.34-1.13-0.57-2.34-0.59-3.52c-0.07-4.24-0.03-8.49-0.03-12.73c0-4.2-0.03-8.39,0.02-12.59   c0.02-1.14,0.19-2.31,0.51-3.4c0.38-1.29,1.4-1.89,2.77-1.86c1.3,0.03,2.26,0.6,2.64,1.85c0.29,0.95,0.56,1.97,0.56,2.95   C589.72,250,589.72,258.73,589.68,267.46z"/>
	<path class="st0" d="M764.66,261.72c-1.01-0.03-1.35,0.32-1.34,1.32c0.02,1.83-0.01,3.67-0.14,5.49c-0.17,2.36-1.4,3.7-3.24,3.71   c-1.85,0.01-3.33-1.33-3.43-3.74c-0.18-4.08-0.05-8.18-0.05-12.4c0.69-0.03,1.31-0.08,1.92-0.08c4-0.01,8.01-0.02,12.01,0   c0.89,0,1.48-0.1,1.4-1.24c-0.09-1.39,0-2.8-0.03-4.19c-0.08-4.04,0.13-8.13-0.36-12.12c-0.57-4.65-3.24-8.12-7.91-9.35   c-4.62-1.21-9.04-0.67-12.45,3.18c-2.47,2.79-3.15,6.22-3.17,9.81c-0.04,6.03-0.04,12.06,0,18.09c0.02,3.08-0.04,6.18,0.27,9.24   c0.83,8.08,7.84,12.61,15.67,10.28c2.09-0.62,3.83-1.72,5.19-3.46c3.4-4.35,2.73-9.41,2.72-14.53   C769.27,261.74,766.96,261.78,764.66,261.72z M756.42,241.33c0.02-0.84,0.21-1.71,0.49-2.52c0.57-1.64,1.61-2.38,3.07-2.34   c1.48,0.04,2.46,0.76,2.86,2.54c0.33,1.48,0.4,3.04,0.46,4.56c0.07,1.76,0.02,3.53,0.02,5.36c-2.38,0-4.53,0-6.93,0   C756.4,246.38,756.36,243.85,756.42,241.33z"/>
	<path class="st0" d="M820.69,261.83c-2.86,0-5.49,0-8.09,0c-0.08,0.18-0.15,0.26-0.15,0.34c-0.02,1.59,0.07,3.19-0.08,4.77   c-0.12,1.27-0.32,2.61-0.85,3.75c-0.97,2.11-3.82,2.19-5.07,0.21c-0.38-0.6-0.77-1.32-0.78-1.99c-0.07-4.22-0.04-8.45-0.04-12.81   c0.51-0.03,1.12-0.1,1.74-0.1c4-0.01,8.01-0.02,12.01,0.01c0.94,0.01,1.39-0.21,1.38-1.28c-0.06-4.97,0.13-9.95-0.1-14.9   c-0.21-4.53-2.25-8.25-6.55-10.13c-4.21-1.84-8.52-1.7-12.35,1.07c-3.47,2.51-4.71,6.23-4.72,10.38   c-0.02,8.83-0.02,17.66,0.01,26.49c0,1.1,0.08,2.23,0.36,3.29c1.24,4.65,3.79,8.17,8.83,9.04c4.73,0.82,9.07,0.05,12.14-4.13   C821.54,271.56,820.68,266.64,820.69,261.83z M805.67,239.85c0.03-0.59,0.34-1.2,0.63-1.75c0.6-1.11,1.55-1.68,2.84-1.62   c1.3,0.06,2.32,0.72,2.59,1.93c0.45,2,0.64,4.05,0.94,6.08c-0.09,0.01-0.17,0.03-0.26,0.04c0,1.16,0.08,2.32-0.05,3.46   c-0.04,0.37-0.62,0.95-0.98,0.97c-1.68,0.1-3.37,0.09-5.05,0.01c-0.32-0.02-0.89-0.51-0.89-0.77   C805.45,245.42,805.53,242.63,805.67,239.85z"/>
</g>
<g>
	<polygon class="st1" points="205.58,216.43 222.94,216.43 222.94,280.03 205.58,280.03 205.58,254.56 177.98,254.56 177.98,280.03    160.62,280.03 160.62,216.43 177.98,216.43 177.98,239.9 205.58,239.9  "/>
	<path class="st1" d="M293.51,249.44c0-21.45-12.19-34.7-31.52-34.7c-19.21,0-32.05,13.24-32.05,33.11   c0,20.66,12.72,33.77,32.58,33.77c15.89,0,26.75-7.29,30.86-21.05h-18.81c-1.72,5.03-5.7,7.55-11.65,7.55   c-9.01,0-14.43-5.3-14.82-14.56h45.29C293.38,251.28,293.51,250.49,293.51,249.44z M247.96,240.82c1.45-8.61,6.22-13.11,13.9-13.11   c7.81,0,13.12,5.3,13.38,13.11H247.96z"/>
	<path class="st1" d="M323.13,215.92c-7.64,2.03-21.58,5.84-22.02,30.02v34.08h17.59l0.06-28.08c0-10.64,1.3-14.82,5.87-18.51   c2.65-2.12,7.16-3.28,10.93-3.31c1.86,0,2.98,0.08,4.67,0.47v-14.46C340.24,216.14,333.94,213.17,323.13,215.92z"/>
	<path class="st1" d="M375.21,214.74c-19.74,0-32.45,13.11-32.45,33.51c0,20.25,12.72,33.37,32.45,33.37   c19.6,0,32.31-13.12,32.31-33.37C407.52,227.84,394.8,214.74,375.21,214.74z M375.21,268.36c-9.28,0-14.7-7.54-14.7-20.12   c0-12.73,5.29-20.13,14.7-20.13c9.26,0,14.56,7.28,14.56,19.99C389.77,260.96,384.47,268.36,375.21,268.36z"/>
	<polygon class="st2" points="112.38,207.82 112.38,226.5 84.77,245.62 84.77,187.39  "/>
	<polygon class="st2" points="84.77,270.72 112.38,251.6 112.38,291.14  "/>
	<polygon class="st1" points="64.13,225.73 36.52,205.29 36.52,288.62 64.13,309.05  "/>
</g>
</svg>