<svg width="23" height="17" viewBox="0 0 23 17" fill="none" xmlns="http://www.w3.org/2000/svg">
<path id="Union" fill-rule="evenodd" clip-rule="evenodd" d="M22.1823 3.22639C22.8921 2.51659 22.8921 1.36577 22.1823 0.655972C21.4725 -0.0538288 20.3217 -0.0538275 19.6119 0.655973L7.92439 12.3435L3.22832 7.64744C2.54315 6.96226 1.43227 6.96227 0.747094 7.64744C0.0619229 8.33261 0.0619232 9.44349 0.747095 10.1287L6.72061 16.1022C6.72318 16.1048 6.72576 16.1074 6.72835 16.11C6.73094 16.1125 6.73353 16.1151 6.73613 16.1177L6.77293 16.1545C7.4581 16.8397 8.56898 16.8397 9.25415 16.1545C9.26118 16.1475 9.26813 16.1404 9.27502 16.1333C9.28298 16.1256 9.2909 16.1178 9.29876 16.11L22.1823 3.22639Z" fill="white"/>
</svg>
